<svg xmlns="http://www.w3.org/2000/svg" xml:space="preserve" width="24" height="24" id="person">
  <path d="M13.6 23.6h-3.2c-.8 0-1.5-.6-1.6-1.4L8 16.4c-.1-.5.1-.9.4-1.3.3-.3.8-.6 1.2-.6h4.8c.5 0 .9.2 1.2.6.3.4.5.8.4 1.3l-.8 5.8c0 .8-.8 1.4-1.6 1.4zm-4-8.1c-.2 0-.4.1-.5.2-.1.2-.2.4-.1.6l.7 5.7c0 .3.3.6.6.6h3.2c.3 0 .6-.2.6-.6l.8-5.8c0-.1 0-.3-.1-.5-.1-.1-.3-.2-.5-.2H9.6zM12 14.1c-1.7 0-3.1-1.4-3.1-3.1s1.4-3.1 3.1-3.1c1.7 0 3.1 1.4 3.1 3.1s-1.4 3.1-3.1 3.1zm0-5.3c-1.2 0-2.1 1-2.1 2.1 0 1.2 1 2.1 2.1 2.1 1.2 0 2.1-1 2.1-2.1s-.9-2.1-2.1-2.1z"></path>
  <path d="M16.8 16.3c-.1 0-.3 0-.4-.1-.2-.2-.2-.5 0-.7 1.2-1.2 1.8-2.7 1.8-4.4 0-1.7-.7-3.2-1.8-4.4C14 4.1 10 4.1 7.6 6.6 6.4 7.7 5.7 9.3 5.7 11c0 1.7.7 3.2 1.8 4.4.2.2.2.5 0 .7-.2.2-.5.2-.7 0-1.4-1.4-2.1-3.2-2.1-5.1 0-1.9.8-3.8 2.1-5.1C9.7 3 14.3 3 17.1 5.8c1.4 1.4 2.1 3.2 2.1 5.1 0 1.9-.8 3.8-2.1 5.1-.1.2-.2.3-.3.3z"></path>
  <path d="M19.1 18.6c-.1 0-.3 0-.4-.1-.2-.2-.2-.5 0-.7 1.8-1.8 2.8-4.2 2.8-6.8 0-2.6-1-5-2.8-6.8C15 .5 9 .5 5.2 4.2c-3.7 3.7-3.7 9.8 0 13.6.2.2.2.5 0 .7-.2.2-.5.2-.7 0-4.1-4.1-4.1-10.8 0-15 4.1-4.1 10.8-4.1 15 0 2 2 3.1 4.7 3.1 7.5s-1.1 5.5-3.1 7.5c-.1.1-.2.1-.4.1z"></path>
</svg>
